<?xml version="1.0"?>
<svg xmlns="http://www.w3.org/2000/svg" xmlns:xlink="http://www.w3.org/1999/xlink" xmlns:svgjs="http://svgjs.com/svgjs" version="1.1" width="512" height="512" x="0" y="0" viewBox="0 0 512.03684 512.03684" style="enable-background:new 0 0 512 512" xml:space="preserve" class=""><g><path xmlns="http://www.w3.org/2000/svg" d="m480 245.371094h-149.332031v256h149.332031c11.78125 0 21.332031-9.550782 21.332031-21.335938v-213.332031c0-11.78125-9.550781-21.332031-21.332031-21.332031zm0 0" fill="#d1b3c4" data-original="#49aaee" class=""/><path xmlns="http://www.w3.org/2000/svg" d="m32 245.371094c-11.78125 0-21.332031 9.550781-21.332031 21.332031v213.332031c0 11.785156 9.550781 21.335938 21.332031 21.335938h149.332031v-256zm0 0" fill="#d1b3c4" data-original="#49aaee" class=""/><path xmlns="http://www.w3.org/2000/svg" d="m181.332031 245.371094h149.335938v192h-149.335938zm0 0" fill="#d1d8e0" data-original="#d1d8e0" class=""/><path xmlns="http://www.w3.org/2000/svg" d="m181.332031 437.371094h149.335938v64h-149.335938zm0 0" fill="#d1b3c4" data-original="#49aaee" class=""/><path xmlns="http://www.w3.org/2000/svg" d="m138.667969 330.703125c0 23.566406-19.105469 42.667969-42.667969 42.667969s-42.667969-19.101563-42.667969-42.667969c0-23.5625 19.105469-42.667969 42.667969-42.667969s42.667969 19.105469 42.667969 42.667969zm0 0" fill="#d1d8e0" data-original="#d1d8e0" class=""/><path xmlns="http://www.w3.org/2000/svg" d="m458.667969 330.703125c0 23.566406-19.105469 42.667969-42.667969 42.667969s-42.667969-19.101563-42.667969-42.667969c0-23.5625 19.105469-42.667969 42.667969-42.667969s42.667969 19.105469 42.667969 42.667969zm0 0" fill="#d1d8e0" data-original="#d1d8e0" class=""/><path xmlns="http://www.w3.org/2000/svg" d="m224 394.703125h64v42.667969h-64zm0 0" fill="#e8c2ca" data-original="#fed049" class=""/><path xmlns="http://www.w3.org/2000/svg" d="m117.332031 437.371094c0 11.78125-9.550781 21.332031-21.332031 21.332031s-21.332031-9.550781-21.332031-21.332031 9.550781-21.335938 21.332031-21.335938 21.332031 9.554688 21.332031 21.335938zm0 0" fill="#e8c2ca" data-original="#fed049" class=""/><path xmlns="http://www.w3.org/2000/svg" d="m437.332031 437.371094c0 11.78125-9.550781 21.332031-21.332031 21.332031s-21.332031-9.550781-21.332031-21.332031 9.550781-21.335938 21.332031-21.335938 21.332031 9.554688 21.332031 21.335938zm0 0" fill="#e8c2ca" data-original="#fed049" class=""/><path xmlns="http://www.w3.org/2000/svg" d="m74.667969 149.371094h362.664062v42.664062h-362.664062zm0 0" fill="#bcc0c4" data-original="#a4b0c0" class=""/><path xmlns="http://www.w3.org/2000/svg" d="m117.332031 96.035156c0 11.785156-9.550781 21.335938-21.332031 21.335938s-21.332031-9.550782-21.332031-21.335938c0-11.78125 9.550781-21.332031 21.332031-21.332031s21.332031 9.550781 21.332031 21.332031zm0 0" fill="#e8c2ca" data-original="#fed049" class=""/><path xmlns="http://www.w3.org/2000/svg" d="m330.667969 170.703125c0 11.78125-9.550781 21.332031-21.335938 21.332031-11.78125 0-21.332031-9.550781-21.332031-21.332031s9.550781-21.332031 21.332031-21.332031c11.785157 0 21.335938 9.550781 21.335938 21.332031zm0 0" fill="#e8c2ca" data-original="#fed049" class=""/><path xmlns="http://www.w3.org/2000/svg" d="m458.667969 96.035156c0 11.785156-9.550781 21.335938-21.335938 21.335938-11.78125 0-21.332031-9.550782-21.332031-21.335938 0-11.78125 9.550781-21.332031 21.332031-21.332031 11.785157 0 21.335938 9.550781 21.335938 21.332031zm0 0" fill="#e8c2ca" data-original="#fed049" class=""/><g xmlns="http://www.w3.org/2000/svg" fill="#474c54"><path d="m490.667969 236.667969v-44.632813c0-17.671875-14.328125-32-32-32h-10.667969v-10.664062c0-5.890625-4.777344-10.667969-10.667969-10.667969h-74.664062v21.332031h64v21.335938h-64v21.332031h74.664062c5.890625 0 10.667969-4.773437 10.667969-10.667969v-10.664062h10.667969c5.890625 0 10.664062 4.773437 10.664062 10.664062v42.667969h-426.664062v-42.667969c0-5.890625 4.773437-10.664062 10.664062-10.664062h10.667969v10.664062c0 5.894532 4.777344 10.667969 10.667969 10.667969h181.332031v-21.332031h-170.667969v-21.335938h170.667969v-21.332031h-181.332031c-5.890625 0-10.667969 4.777344-10.667969 10.667969v10.664062h-10.667969c-17.671875 0-32 14.328125-32 32v44.632813c-12.738281 4.503906-21.2773435 16.523437-21.332031 30.035156v213.332031c0 17.675782 14.328125 32 32 32h448c17.671875 0 32-14.324218 32-32v-213.332031c-.054688-13.511719-8.59375-25.53125-21.332031-30.035156zm-298.667969 211.367187h128v42.667969h-128zm85.332031-21.332031h-42.664062v-21.332031h42.664062zm213.335938 53.332031c0 5.894532-4.777344 10.667969-10.667969 10.667969h-138.667969v-213.332031h-21.332031v149.332031h-21.332031v-32c0-5.890625-4.777344-10.667969-10.667969-10.667969h-64c-5.890625 0-10.667969 4.777344-10.667969 10.667969v32h-21.332031v-149.332031h-21.332031v213.332031h-138.667969c-5.890625 0-10.667969-4.773437-10.667969-10.667969v-213.332031c0-5.890625 4.777344-10.667969 10.667969-10.667969h448c5.890625 0 10.667969 4.777344 10.667969 10.667969zm0 0" fill="#2c252d" data-original="#474c54" class=""/><path d="m96 277.371094c-29.457031 0-53.332031 23.878906-53.332031 53.332031 0 29.457031 23.875 53.332031 53.332031 53.332031s53.332031-23.875 53.332031-53.332031c-.035156-29.441406-23.890625-53.296875-53.332031-53.332031zm0 85.332031c-17.671875 0-32-14.328125-32-32s14.328125-32 32-32 32 14.328125 32 32-14.328125 32-32 32zm0 0" fill="#2c252d" data-original="#474c54" class=""/><path d="m96 405.371094c-17.671875 0-32 14.324218-32 32 0 17.671875 14.328125 32 32 32s32-14.328125 32-32c0-17.675782-14.328125-32-32-32zm0 42.664062c-5.890625 0-10.667969-4.773437-10.667969-10.664062s4.777344-10.667969 10.667969-10.667969 10.667969 4.777344 10.667969 10.667969-4.777344 10.664062-10.667969 10.664062zm0 0" fill="#2c252d" data-original="#474c54" class=""/><path d="m416 277.371094c-29.457031 0-53.332031 23.878906-53.332031 53.332031 0 29.457031 23.875 53.332031 53.332031 53.332031s53.332031-23.875 53.332031-53.332031c-.035156-29.441406-23.890625-53.296875-53.332031-53.332031zm0 85.332031c-17.671875 0-32-14.328125-32-32s14.328125-32 32-32 32 14.328125 32 32-14.328125 32-32 32zm0 0" fill="#2c252d" data-original="#474c54" class=""/><path d="m416 405.371094c-17.671875 0-32 14.324218-32 32 0 17.671875 14.328125 32 32 32s32-14.328125 32-32c0-17.675782-14.328125-32-32-32zm0 42.664062c-5.890625 0-10.667969-4.773437-10.667969-10.664062s4.777344-10.667969 10.667969-10.667969 10.667969 4.777344 10.667969 10.667969-4.777344 10.664062-10.667969 10.664062zm0 0" fill="#2c252d" data-original="#474c54" class=""/><path d="m224 277.371094h21.332031v21.332031h-21.332031zm0 0" fill="#2c252d" data-original="#474c54" class=""/><path d="m266.667969 277.371094h21.332031v21.332031h-21.332031zm0 0" fill="#2c252d" data-original="#474c54" class=""/><path d="m85.332031 320.035156h21.335938v21.335938h-21.335938zm0 0" fill="#2c252d" data-original="#474c54" class=""/><path d="m405.332031 320.035156h21.335938v21.335938h-21.335938zm0 0" fill="#2c252d" data-original="#474c54" class=""/><path d="m437.332031 128.035156c17.675781 0 32-14.324218 32-32v-73.023437c13.585938 3.53125 22.617188 16.378906 21.335938 30.359375h21.332031c.542969-14.304688-4.902344-28.1875-15.023438-38.308594-10.125-10.121094-24.003906-15.566406-38.308593-15.0273438-5.890625 0-10.667969 4.7773438-10.667969 10.6679688v55.296875c-3.417969-1.265625-7.023438-1.929688-10.667969-1.964844-17.671875 0-32 14.328125-32 32 0 17.675782 14.328125 32 32 32zm0-42.664062c5.890625 0 10.667969 4.773437 10.667969 10.664062 0 5.894532-4.777344 10.667969-10.667969 10.667969s-10.664062-4.773437-10.664062-10.667969c0-5.890625 4.773437-10.664062 10.664062-10.664062zm0 0" fill="#2c252d" data-original="#474c54" class=""/><path d="m96 128.035156c17.671875 0 32-14.324218 32-32v-73.023437c13.585938 3.53125 22.613281 16.378906 21.332031 30.359375h21.335938c.539062-14.304688-4.90625-28.1875-15.027344-38.308594s-24.003906-15.566406-38.308594-15.0273438c-5.890625 0-10.664062 4.7773438-10.664062 10.6679688v55.296875c-3.417969-1.265625-7.027344-1.929688-10.667969-1.964844-17.671875 0-32 14.328125-32 32 0 17.675782 14.328125 32 32 32zm0-42.664062c5.890625 0 10.667969 4.773437 10.667969 10.664062 0 5.894532-4.777344 10.667969-10.667969 10.667969s-10.667969-4.773437-10.667969-10.667969c0-5.890625 4.777344-10.664062 10.667969-10.664062zm0 0" fill="#2c252d" data-original="#474c54" class=""/><path d="m309.332031 202.703125c17.675781 0 32-14.328125 32-32v-73.023437c13.585938 3.53125 22.617188 16.378906 21.335938 30.355468h21.332031c.542969-14.300781-4.902344-28.183594-15.023438-38.308594-10.125-10.121093-24.003906-15.566406-38.308593-15.023437-5.890625 0-10.667969 4.777344-10.667969 10.667969v55.296875c-3.417969-1.265625-7.023438-1.929688-10.667969-1.964844-17.671875 0-32 14.328125-32 32s14.328125 32 32 32zm0-42.667969c5.890625 0 10.667969 4.777344 10.667969 10.667969s-4.777344 10.667969-10.667969 10.667969-10.664062-4.777344-10.664062-10.667969 4.773437-10.667969 10.664062-10.667969zm0 0" fill="#2c252d" data-original="#474c54" class=""/></g></g></svg>
