<?xml version="1.0" encoding="UTF-8"?>
<svg xmlns="http://www.w3.org/2000/svg" xmlns:xlink="http://www.w3.org/1999/xlink"  version="1.1" width="512" height="512" x="0" y="0" viewBox="0 0 512 512" style="enable-background:new 0 0 512 512" xml:space="preserve" class="">
  <g>
    <g xmlns="http://www.w3.org/2000/svg">
      <g>
        <path d="m442.325 428.188h-35.688v-147.318h35.688c10.666 0 19.312 8.646 19.312 19.312v108.696c0 10.664-8.647 19.31-19.312 19.31z" fill="#e49273" data-original="#8191a5" class=""/>
        <g fill="#8191a5">
          <path d="m68.5 78.174c-10.016 0-18.136 8.12-18.136 18.136 0 10.016 8.12 18.137 18.136 18.137h38.137v-36.273z" fill="#e49273" data-original="#8191a5" class=""/>
          <path d="m50.363 172.584c0 10.017 8.12 18.137 18.136 18.137h38.137v-36.273h-38.136c-10.017-.001-18.137 8.119-18.137 18.136z" fill="#e49273" data-original="#8191a5" class=""/>
        </g>
        <path d="m426.64 66.819v378.37c0 32.75-26.56 59.31-59.32 59.31h-221.37c-32.76 0-59.31-26.56-59.31-59.31v-378.37c0-32.76 26.55-59.32 59.31-59.32h221.37c32.76 0 59.32 26.56 59.32 59.32z" fill="#006d77" data-original="#adade0" class=""/>
        <path d="m426.64 66.819v378.37c0 32.75-26.56 59.31-59.32 59.31h-40c32.76 0 59.32-26.56 59.32-59.31v-378.37c0-32.76-26.56-59.32-59.32-59.32h40c32.76 0 59.32 26.56 59.32 59.32z" fill="#00636c" data-original="#9691ce" class=""/>
        <path d="m364.702 51.87h-216.13c-12.114 0-21.935 9.821-21.935 21.935v86.13c0 12.114 9.821 21.935 21.935 21.935h216.13c12.114 0 21.935-9.821 21.935-21.935v-86.13c0-12.115-9.821-21.935-21.935-21.935z" fill="#ffffff" data-original="#ffffff" class=""/>
        <g>
          <g>
            <g>
              <ellipse cx="177.08" cy="123.795" fill="#ffffff" rx="29.355" ry="23.377" data-original="#eda1ab" class=""/>
            </g>
            <g>
              <ellipse cx="336.193" cy="123.795" fill="#ffffff" rx="29.355" ry="23.377" data-original="#eda1ab" class=""/>
            </g>
          </g>
        </g>
        <path d="m373.11 341.999c0 64.33-52.14 116.48-116.47 116.48-5.08 0-10.09-.33-15-.96-57.25-7.36-101.48-56.27-101.48-115.52s44.23-108.16 101.48-115.52c4.91-.63 9.92-.96 15-.96 64.33 0 116.47 52.15 116.47 116.48z" fill="#e49273" data-original="#8191a5" class=""/>
        <path d="m373.11 341.999c0 64.33-52.14 116.48-116.47 116.48-5.08 0-10.09-.33-15-.96 57.25-7.36 101.47-56.27 101.47-115.52s-44.22-108.16-101.47-115.52c4.91-.63 9.92-.96 15-.96 64.33 0 116.47 52.15 116.47 116.48z" fill="#d08366" data-original="#68728c" class=""/>
        <path d="m224.886 312.978v58.044c0 10.703 11.899 17.115 20.838 11.228l44.069-29.022c8.066-5.312 8.066-17.144 0-22.456l-44.069-29.022c-8.939-5.887-20.838.525-20.838 11.228z" fill="#ffffff" data-original="#ffffff" class=""/>
      </g>
      <g>
        <path d="m386.636 106.065c4.142 0 7.5-3.357 7.5-7.5v-24.76c0-16.23-13.204-29.436-29.435-29.436h-216.13c-16.23 0-29.435 13.205-29.435 29.436v86.13c0 16.23 13.205 29.435 29.435 29.435h216.13c16.23 0 29.435-13.204 29.435-29.435v-26.63c0-4.143-3.358-7.5-7.5-7.5s-7.5 3.357-7.5 7.5v26.63c0 7.959-6.475 14.435-14.435 14.435h-216.13c-7.959 0-14.435-6.476-14.435-14.435v-86.13c0-7.96 6.476-14.436 14.435-14.436h216.13c7.959 0 14.435 6.476 14.435 14.436v24.761c0 4.142 3.358 7.499 7.5 7.499z" fill="#000000" data-original="#000000" class=""/>
        <path d="m186.688 92.292v11.999c0 4.143 3.358 7.5 7.5 7.5s7.5-3.357 7.5-7.5v-11.999c0-4.143-3.358-7.5-7.5-7.5s-7.5 3.357-7.5 7.5z" fill="#000000" data-original="#000000" class=""/>
        <path d="m311.585 92.292v11.999c0 4.143 3.358 7.5 7.5 7.5s7.5-3.357 7.5-7.5v-11.999c0-4.143-3.358-7.5-7.5-7.5s-7.5 3.357-7.5 7.5z" fill="#000000" data-original="#000000" class=""/>
        <path d="m267.447 99.007c-2.73 3.132-6.67 4.928-10.811 4.928s-8.081-1.796-10.811-4.928c-2.723-3.125-7.459-3.448-10.582-.726s-3.447 7.459-.726 10.581c5.58 6.401 13.641 10.072 22.118 10.072s16.539-3.671 22.118-10.072c2.722-3.122 2.397-7.859-.726-10.581-3.121-2.722-7.858-2.397-10.58.726z" fill="#000000" data-original="#000000" class=""/>
        <path d="m79.136 352.565c0 4.143 3.358 7.5 7.5 7.5s7.5-3.357 7.5-7.5v-285.75c0-28.571 23.245-51.815 51.816-51.815h31.511c4.142 0 7.5-3.357 7.5-7.5s-3.358-7.5-7.5-7.5h-31.511c-36.842 0-66.816 29.974-66.816 66.815v3.858h-10.636c-14.136 0-25.637 11.501-25.637 25.637s11.5 25.637 25.637 25.637h10.636v25h-10.636c-14.136 0-25.637 11.501-25.637 25.637s11.5 25.637 25.637 25.637h10.636zm-10.636-245.618c-5.865 0-10.637-4.771-10.637-10.637s4.772-10.636 10.637-10.636h10.636v21.273zm0 76.274c-5.865 0-10.637-4.771-10.637-10.637s4.771-10.637 10.637-10.637h10.636v21.273h-10.636z" fill="#000000" data-original="#000000" class=""/>
        <path d="m342.162 431.755c24.797-23.634 38.453-55.51 38.453-89.755 0-68.362-55.617-123.979-123.979-123.979s-123.978 55.617-123.978 123.979 55.616 123.979 123.978 123.979c19.421 0 38.02-4.366 55.279-12.978 3.706-1.85 5.212-6.353 3.362-10.06-1.849-3.706-6.353-5.209-10.059-3.362-15.161 7.564-31.506 11.399-48.582 11.399-60.091 0-108.978-48.888-108.978-108.979s48.887-108.979 108.978-108.979 108.979 48.889 108.979 108.98c0 30.102-12.004 58.121-33.802 78.897-2.999 2.857-3.112 7.604-.255 10.604 2.859 2.998 7.607 3.111 10.604.254z" fill="#000000" data-original="#000000" class=""/>
        <path d="m249.849 295.486c-6.443-4.242-14.664-4.604-21.454-.946-6.791 3.659-11.009 10.724-11.009 18.438v58.045c0 7.714 4.218 14.778 11.009 18.438 3.115 1.679 6.529 2.511 9.936 2.511 4.021 0 8.03-1.16 11.518-3.457l44.069-29.022c5.901-3.886 9.424-10.425 9.424-17.491s-3.523-13.605-9.424-17.491zm35.819 51.478-44.069 29.022c-2.676 1.761-5.149.774-6.088.269-.939-.506-3.125-2.029-3.125-5.232v-58.045c0-3.203 2.185-4.727 3.125-5.232.537-.289 1.576-.736 2.868-.736.967 0 2.075.251 3.221 1.005l44.069 29.022c2.414 1.59 2.674 4.001 2.674 4.964s-.261 3.373-2.675 4.963z" fill="#000000" data-original="#000000" class=""/>
        <path d="m442.325 273.369h-8.188v-206.554c-.001-36.841-29.974-66.815-66.815-66.815h-154.425c-4.142 0-7.5 3.357-7.5 7.5s3.358 7.5 7.5 7.5h154.424c28.571 0 51.815 23.244 51.815 51.815v378.369c0 28.571-23.244 51.815-51.815 51.815h-221.37c-28.571 0-51.815-23.244-51.815-51.815v-57.88c0-4.143-3.358-7.5-7.5-7.5s-7.5 3.357-7.5 7.5v57.88c0 36.842 29.973 66.815 66.815 66.815h221.37c36.842 0 66.815-29.974 66.815-66.815v-9.496h8.188c14.784 0 26.812-12.027 26.812-26.812v-108.694c0-14.785-12.027-26.813-26.811-26.813zm11.811 135.508c0 6.513-5.299 11.812-11.812 11.812h-8.188v-132.32h8.188c6.513 0 11.812 5.299 11.812 11.813z" fill="#000000" data-original="#000000" class=""/>
        <path d="m168.789 329.132v25.736c0 4.143 3.358 7.5 7.5 7.5s7.5-3.357 7.5-7.5v-25.736c0-4.143-3.358-7.5-7.5-7.5s-7.5 3.357-7.5 7.5z" fill="#000000" data-original="#000000" class=""/>
        <path d="m336.985 362.368c4.142 0 7.5-3.357 7.5-7.5v-25.736c0-4.143-3.358-7.5-7.5-7.5s-7.5 3.357-7.5 7.5v25.736c0 4.143 3.358 7.5 7.5 7.5z" fill="#000000" data-original="#000000" class=""/>
      </g>
    </g>
  </g>
</svg>
